<mxfile host="Electron" modified="2024-09-21T05:40:23.130Z" agent="Mozilla/5.0 (Macintosh; Intel Mac OS X 10_15_7) AppleWebKit/537.36 (KHTML, like Gecko) draw.io/24.6.4 Chrome/124.0.6367.207 Electron/30.0.6 Safari/537.36" etag="0EzH6cSFoWhluDDl6-q9" version="24.6.4" type="device" pages="2">
  <diagram name="페이지-1" id="BR57__S5ek2S3cufI04g">
    <mxGraphModel dx="1434" dy="907" grid="1" gridSize="10" guides="1" tooltips="1" connect="1" arrows="1" fold="1" page="1" pageScale="1" pageWidth="1169" pageHeight="827" math="0" shadow="0">
      <root>
        <mxCell id="0" />
        <mxCell id="1" parent="0" />
        <mxCell id="iaHc8ygBbzhY2BxpPRV3-11" style="edgeStyle=orthogonalEdgeStyle;rounded=0;orthogonalLoop=1;jettySize=auto;html=1;exitX=1;exitY=0.5;exitDx=0;exitDy=0;entryX=0;entryY=0.5;entryDx=0;entryDy=0;startArrow=classic;startFill=1;" edge="1" parent="1" source="iaHc8ygBbzhY2BxpPRV3-8" target="iaHc8ygBbzhY2BxpPRV3-10">
          <mxGeometry relative="1" as="geometry" />
        </mxCell>
        <mxCell id="iaHc8ygBbzhY2BxpPRV3-8" value="메인화면" style="rounded=0;whiteSpace=wrap;html=1;" vertex="1" parent="1">
          <mxGeometry x="120" y="200" width="120" height="60" as="geometry" />
        </mxCell>
        <mxCell id="iaHc8ygBbzhY2BxpPRV3-19" style="edgeStyle=orthogonalEdgeStyle;rounded=0;orthogonalLoop=1;jettySize=auto;html=1;exitX=1;exitY=0.5;exitDx=0;exitDy=0;entryX=0;entryY=0.5;entryDx=0;entryDy=0;startArrow=classic;startFill=1;" edge="1" parent="1" source="iaHc8ygBbzhY2BxpPRV3-10" target="iaHc8ygBbzhY2BxpPRV3-12">
          <mxGeometry relative="1" as="geometry" />
        </mxCell>
        <mxCell id="iaHc8ygBbzhY2BxpPRV3-20" style="edgeStyle=orthogonalEdgeStyle;rounded=0;orthogonalLoop=1;jettySize=auto;html=1;exitX=0.25;exitY=0;exitDx=0;exitDy=0;entryX=0.5;entryY=1;entryDx=0;entryDy=0;startArrow=classic;startFill=1;" edge="1" parent="1" source="iaHc8ygBbzhY2BxpPRV3-10" target="iaHc8ygBbzhY2BxpPRV3-14">
          <mxGeometry relative="1" as="geometry" />
        </mxCell>
        <mxCell id="iaHc8ygBbzhY2BxpPRV3-22" style="edgeStyle=orthogonalEdgeStyle;rounded=0;orthogonalLoop=1;jettySize=auto;html=1;exitX=0.75;exitY=0;exitDx=0;exitDy=0;entryX=0.5;entryY=1;entryDx=0;entryDy=0;startArrow=classic;startFill=1;" edge="1" parent="1" source="iaHc8ygBbzhY2BxpPRV3-10" target="iaHc8ygBbzhY2BxpPRV3-21">
          <mxGeometry relative="1" as="geometry" />
        </mxCell>
        <mxCell id="iaHc8ygBbzhY2BxpPRV3-24" style="edgeStyle=orthogonalEdgeStyle;rounded=0;orthogonalLoop=1;jettySize=auto;html=1;exitX=0.5;exitY=1;exitDx=0;exitDy=0;entryX=0.5;entryY=0;entryDx=0;entryDy=0;" edge="1" parent="1" source="iaHc8ygBbzhY2BxpPRV3-10" target="iaHc8ygBbzhY2BxpPRV3-23">
          <mxGeometry relative="1" as="geometry" />
        </mxCell>
        <mxCell id="iaHc8ygBbzhY2BxpPRV3-10" value="로그인" style="rounded=0;whiteSpace=wrap;html=1;" vertex="1" parent="1">
          <mxGeometry x="320" y="200" width="120" height="60" as="geometry" />
        </mxCell>
        <mxCell id="iaHc8ygBbzhY2BxpPRV3-12" value="회원가입" style="rounded=0;whiteSpace=wrap;html=1;" vertex="1" parent="1">
          <mxGeometry x="520" y="200" width="120" height="60" as="geometry" />
        </mxCell>
        <mxCell id="iaHc8ygBbzhY2BxpPRV3-14" value="아이디 찾기" style="rounded=0;whiteSpace=wrap;html=1;" vertex="1" parent="1">
          <mxGeometry x="260" y="80" width="120" height="60" as="geometry" />
        </mxCell>
        <mxCell id="iaHc8ygBbzhY2BxpPRV3-21" value="비밀번호 변경" style="rounded=0;whiteSpace=wrap;html=1;" vertex="1" parent="1">
          <mxGeometry x="420" y="80" width="120" height="60" as="geometry" />
        </mxCell>
        <mxCell id="iaHc8ygBbzhY2BxpPRV3-27" style="edgeStyle=orthogonalEdgeStyle;rounded=0;orthogonalLoop=1;jettySize=auto;html=1;exitX=0.5;exitY=1;exitDx=0;exitDy=0;entryX=0.5;entryY=0;entryDx=0;entryDy=0;startArrow=classic;startFill=1;" edge="1" parent="1" source="iaHc8ygBbzhY2BxpPRV3-23" target="iaHc8ygBbzhY2BxpPRV3-26">
          <mxGeometry relative="1" as="geometry" />
        </mxCell>
        <mxCell id="iaHc8ygBbzhY2BxpPRV3-29" style="edgeStyle=orthogonalEdgeStyle;rounded=0;orthogonalLoop=1;jettySize=auto;html=1;exitX=1;exitY=0.5;exitDx=0;exitDy=0;entryX=0;entryY=0.5;entryDx=0;entryDy=0;startArrow=classic;startFill=1;" edge="1" parent="1" source="iaHc8ygBbzhY2BxpPRV3-23" target="iaHc8ygBbzhY2BxpPRV3-25">
          <mxGeometry relative="1" as="geometry" />
        </mxCell>
        <mxCell id="iaHc8ygBbzhY2BxpPRV3-23" value="게시글 목록" style="rounded=0;whiteSpace=wrap;html=1;" vertex="1" parent="1">
          <mxGeometry x="320" y="320" width="120" height="60" as="geometry" />
        </mxCell>
        <mxCell id="iaHc8ygBbzhY2BxpPRV3-31" style="edgeStyle=orthogonalEdgeStyle;rounded=0;orthogonalLoop=1;jettySize=auto;html=1;exitX=1;exitY=0.5;exitDx=0;exitDy=0;entryX=0;entryY=0.5;entryDx=0;entryDy=0;startArrow=classic;startFill=1;" edge="1" parent="1" source="iaHc8ygBbzhY2BxpPRV3-25" target="iaHc8ygBbzhY2BxpPRV3-30">
          <mxGeometry relative="1" as="geometry" />
        </mxCell>
        <mxCell id="iaHc8ygBbzhY2BxpPRV3-25" value="게시글 조회" style="rounded=0;whiteSpace=wrap;html=1;" vertex="1" parent="1">
          <mxGeometry x="520" y="320" width="120" height="60" as="geometry" />
        </mxCell>
        <mxCell id="iaHc8ygBbzhY2BxpPRV3-28" style="edgeStyle=orthogonalEdgeStyle;rounded=0;orthogonalLoop=1;jettySize=auto;html=1;exitX=1;exitY=0.5;exitDx=0;exitDy=0;entryX=0.5;entryY=1;entryDx=0;entryDy=0;" edge="1" parent="1" source="iaHc8ygBbzhY2BxpPRV3-26" target="iaHc8ygBbzhY2BxpPRV3-25">
          <mxGeometry relative="1" as="geometry" />
        </mxCell>
        <mxCell id="iaHc8ygBbzhY2BxpPRV3-26" value="게시글 등록" style="rounded=0;whiteSpace=wrap;html=1;" vertex="1" parent="1">
          <mxGeometry x="320" y="440" width="120" height="60" as="geometry" />
        </mxCell>
        <mxCell id="iaHc8ygBbzhY2BxpPRV3-30" value="게시글 수정" style="rounded=0;whiteSpace=wrap;html=1;" vertex="1" parent="1">
          <mxGeometry x="720" y="320" width="120" height="60" as="geometry" />
        </mxCell>
      </root>
    </mxGraphModel>
  </diagram>
  <diagram id="1F6hoL4aRCtL4BPEBTOo" name="페이지-2">
    <mxGraphModel dx="1434" dy="907" grid="1" gridSize="10" guides="1" tooltips="1" connect="1" arrows="1" fold="1" page="1" pageScale="1" pageWidth="1169" pageHeight="827" math="0" shadow="0">
      <root>
        <mxCell id="0" />
        <mxCell id="1" parent="0" />
        <mxCell id="5rYs3sqvwXbueNPYxjzo-1" value="" style="rounded=0;whiteSpace=wrap;html=1;fillColor=none;" vertex="1" parent="1">
          <mxGeometry x="160" y="80" width="520" height="320" as="geometry" />
        </mxCell>
        <mxCell id="5rYs3sqvwXbueNPYxjzo-2" value="" style="rounded=0;whiteSpace=wrap;html=1;fillColor=none;" vertex="1" parent="1">
          <mxGeometry x="320" y="160" width="240" height="120" as="geometry" />
        </mxCell>
        <mxCell id="5rYs3sqvwXbueNPYxjzo-3" value="" style="rounded=0;whiteSpace=wrap;html=1;fillColor=none;" vertex="1" parent="1">
          <mxGeometry x="330" y="170" width="220" height="30" as="geometry" />
        </mxCell>
        <mxCell id="5rYs3sqvwXbueNPYxjzo-4" value="" style="rounded=0;whiteSpace=wrap;html=1;fillColor=none;" vertex="1" parent="1">
          <mxGeometry x="330" y="205" width="220" height="30" as="geometry" />
        </mxCell>
        <mxCell id="5rYs3sqvwXbueNPYxjzo-5" value="" style="rounded=0;whiteSpace=wrap;html=1;fillColor=#0066CC;" vertex="1" parent="1">
          <mxGeometry x="330" y="240" width="220" height="30" as="geometry" />
        </mxCell>
        <mxCell id="5rYs3sqvwXbueNPYxjzo-6" value="회원가입" style="text;html=1;align=center;verticalAlign=middle;whiteSpace=wrap;rounded=0;" vertex="1" parent="1">
          <mxGeometry x="320" y="280" width="60" height="30" as="geometry" />
        </mxCell>
        <mxCell id="5rYs3sqvwXbueNPYxjzo-7" value="아이디 찾기 | 비밀번호 변경" style="text;html=1;align=center;verticalAlign=middle;whiteSpace=wrap;rounded=0;" vertex="1" parent="1">
          <mxGeometry x="420" y="280" width="140" height="30" as="geometry" />
        </mxCell>
      </root>
    </mxGraphModel>
  </diagram>
</mxfile>
